# xmcd
#
# Track frame offsets: 
#        150
#        17613
#        37752
#        58370
#        75946
#        91278
#        111724
#        132509
#        151035
#
# Disc length: 2408 seconds
#
# Revision: 0
# Processed by: cddbd v1.5.2PL0 Copyright (c) Steve Scherf et al.
# Submitted via: ExactAudioCopy v0.99pb5
#
DISCID=68096609
DTITLE=Joe Purdy - Who Will Be Next
DYEAR=2016
DGENRE=Country
TTITLE0=New Year's Eve
TTITLE1=Who Will Be Next?
TTITLE2=Children of Priviledge
TTITLE3=Kristine
TTITLE4=Cursin' Air
TTITLE5=Cairo Walls
TTITLE6=War Dogs
TTITLE7=Maybe We'll All Get Along Someday
TTITLE8=My Country
EXTD=
EXTT0=
EXTT1=
EXTT2=
EXTT3=
EXTT4=
EXTT5=
EXTT6=
EXTT7=
EXTT8=
PLAYORDER=
